<svg xmlns="http://www.w3.org/2000/svg" viewBox="0 0 48 48" width="48" height="48">
  <path fill="#95BF47" d="M32.4 9.9c-.03-.21-.22-.33-.37-.34-.15-.01-3.05-.06-3.05-.06s-2.42-2.35-2.66-2.59c-.24-.24-.71-.17-.89-.11-.02.01-.46.14-1.19.37-.72-2.08-1.99-3.99-4.23-3.99h-.19c-.64-.84-1.42-1.2-2.1-1.2-5.23 0-7.73 6.54-8.51 9.86-2.03.63-3.48 1.08-3.66 1.14-1.13.36-1.17.39-1.32 1.46C4.11 15.42 1.15 38.3 1.15 38.3L24.2 42.6l12.49-2.7S32.43 10.11 32.4 9.9zM22.83 7.55l-1.93.6v-.42c0-1.26-.18-2.28-.46-3.09 1.14.15 1.9 1.45 2.39 2.91zm-3.83-2.65c.31.79.51 1.92.51 3.45v.24l-3.99 1.24c.77-2.96 2.21-4.39 3.48-4.93zM17.5 3.36c.22 0 .45.08.66.23-1.68.79-3.48 2.78-4.24 6.75l-3.15.98c.89-3.03 3-7.94 6.73-7.94z"/>
  <path fill="#5E8E3E" d="M32.03 9.56c-.15-.01-3.05-.06-3.05-.06s-2.42-2.35-2.66-2.59c-.09-.09-.21-.14-.34-.16L24.2 42.6l12.49-2.7S32.43 10.11 32.4 9.9c-.03-.21-.22-.33-.37-.34z"/>
  <path fill="#FFF" d="M19.94 16.6l-1.54 4.58s-1.35-.72-3-.72c-2.42 0-2.54 1.52-2.54 1.9 0 2.08 5.42 2.88 5.42 7.75 0 3.83-2.43 6.3-5.71 6.3-3.94 0-5.95-2.45-5.95-2.45l1.05-3.49s2.07 1.78 3.81 1.78c1.14 0 1.6-.9 1.6-1.55 0-2.71-4.44-2.83-4.44-7.29 0-3.75 2.69-7.38 8.13-7.38 2.1 0 3.13.6 3.13.6z"/>
</svg>
